<svg version="1.2" xmlns="http://www.w3.org/2000/svg" viewBox="0 0 1000 300" width="1000" height="300"><style></style><path  d="m462 122h19.6v-30h16.5c21.3 0 33.7-12.7 33.7-31.2 0-18.4-12.2-31.4-33.2-31.4h-36.6zm19.6-45.7v-30.9h13.2c11.3 0 16.8 6.1 16.8 15.4 0 9.1-5.5 15.5-16.7 15.5zm62.4 45.7h19.6v-32.8h14.3l17.6 32.8h21.6l-19.7-36c10.5-4.5 16.4-13.7 16.4-26.4 0-18.4-12.2-30.2-33.2-30.2h-36.6zm19.6-48.6v-28h13.2c11.3 0 16.8 5 16.8 14.2 0 9.2-5.5 13.8-16.7 13.8zm149.5 2.3c0-30.3-18.8-47.6-43.3-47.6-24.7 0-43.4 17.3-43.4 47.6 0 30.1 18.7 47.5 43.4 47.5 24.5 0 43.3-17.2 43.3-47.5zm-19.8 0c0 19.6-9.3 30.2-23.5 30.2-14.3 0-23.5-10.6-23.5-30.2 0-19.7 9.2-30.3 23.5-30.3 14.2 0 23.5 10.6 23.5 30.3zm33.7 46.3h19.6v-38.3h37.7v-16.1h-37.7v-22.1h41.8v-16.1h-61.4zm75 0h62.6v-16.2h-43v-22.1h39.6v-16.1h-39.6v-22.1h42.8v-16.1h-62.4z"/><path  d="m464 169.4v92.6h19v-60.5h0.8l24 60h12.9l24-59.8h0.7v60.3h19v-92.6h-24.1l-25.5 62.2h-1.1l-25.5-62.2zm132 92.6l6.8-21.1h33.5l6.8 21.1h21l-31.9-92.6h-25.3l-31.9 92.6zm11.8-36.4l11.4-35h0.7l11.4 35zm67.2 36.4h19.6v-32.8h14.3l17.5 32.8h21.7l-19.7-36c10.5-4.5 16.4-13.7 16.4-26.4 0-18.4-12.2-30.2-33.2-30.2h-36.6zm19.6-48.6v-28h13.2c11.3 0 16.8 5 16.8 14.2 0 9.2-5.5 13.8-16.7 13.8zm146.1-11.6c-2.5-21.4-18.7-33.7-40.2-33.7-24.4 0-43.1 17.3-43.1 47.6 0 30.2 18.4 47.6 43.1 47.6 23.8 0 38.1-15.8 40.2-32.9l-19.8-0.1c-1.8 9.9-9.6 15.6-20 15.6-14.1 0-23.7-10.4-23.7-30.2 0-19.3 9.5-30.3 23.8-30.3 10.7 0 18.4 6.2 19.9 16.4zm99.4 13.9c0-30.3-18.8-47.6-43.3-47.6-24.7 0-43.4 17.3-43.4 47.6 0 30.1 18.7 47.6 43.4 47.6 24.5 0 43.3-17.3 43.3-47.6zm-19.8 0c0 19.6-9.3 30.2-23.5 30.2-14.3 0-23.6-10.6-23.6-30.2 0-19.6 9.3-30.3 23.6-30.3 14.2 0 23.5 10.7 23.5 30.3z"/><path  d="m141.6 56.3c-8.2 0-15.5 5.4-17.9 13.2l-24.7 80.1h89.6c10.3 0 18.7 8.3 18.7 18.7h37.3c0-10.4 8.3-18.7 18.6-18.7h89.6l-24.7-80.1c-2.4-7.8-9.6-13.2-17.8-13.2h-19.1c-10.3 0-18.6-8.3-18.6-18.6 0-10.4 8.3-18.7 18.6-18.7h19.1c24.5 0 46.3 16 53.5 39.5l26.5 86c2.4 7.7 3.5 15.7 3.5 23.8v55.9c0 30.9-25 56-55.9 56h-37.3c-31 0-56-25.1-56-56v-18.6h-37.3v18.6c0 30.9-25.1 56-56 56h-37.3c-30.9 0-56-25.1-56-56v-55.9c0-8.1 1.2-16.1 3.6-23.8l26.4-86c7.3-23.5 28.9-39.5 53.6-39.5h19c10.3 0 18.7 8.3 18.7 18.7 0 10.3-8.4 18.6-18.7 18.6zm-46.2 130.6v37.3c0 10.4 8.3 18.7 18.6 18.7h37.4c10.3 0 18.6-8.3 18.6-18.7v-37.3zm242.6 56c10.3 0 18.6-8.3 18.6-18.7v-37.3h-74.6v37.3c0 10.4 8.3 18.7 18.6 18.7z"/></svg>