<svg version="1.2" xmlns="http://www.w3.org/2000/svg" viewBox="0 0 512 512" width="512" height="512"><style>.a{fill:#fbdb58}.b{fill:#e52e44}.c{fill:#fa4654}.d{fill:#fb626e}.e{fill:#fff}.f{fill:#ebd9ea}.g{fill:#f39e22}.h{fill:#f9c744}</style><path fill-rule="evenodd" class="a" d="m256 512c-141.6 0-256-114.4-256-256 0-141.6 114.4-256 256-256 141.6 0 256 114.4 256 256 0 141.6-114.4 256-256 256z"/><path class="b" d="m301.7 198.8l-2.2 19.1-6.9 62.4c-0.3 2.9-1.2 5.7-2.5 8.3-1.4 2.6-3.2 5-5.3 6.9-2.2 2-4.8 3.5-7.5 4.6-2.8 1-5.7 1.6-8.6 1.6h-25.4c-2.9 0-5.8-0.6-8.6-1.6-2.7-1.1-5.3-2.6-7.5-4.6-2.1-1.9-3.9-4.3-5.3-6.9-1.3-2.6-2.2-5.4-2.5-8.3l-6.9-62.4-2.2-19.1z"/><path class="c" d="m299.5 217.9c-9.4 5.3-25.4 8.8-43.5 8.8q-2 0-3.9 0-2-0.1-4-0.2-1.9-0.1-3.9-0.3-1.9-0.1-3.9-0.4c-1.3-0.1-2.7 0-4 0.5-1.3 0.4-2.4 1.1-3.4 2.1-1 1-1.7 2.1-2.1 3.4-0.5 1.3-0.6 2.7-0.5 4l5 44.5c0.3 2.9 1.1 5.7 2.5 8.3 1.3 2.6 3.1 5 5.3 6.9 2.2 2 4.7 3.5 7.5 4.6 2.7 1 5.6 1.6 8.6 1.6h9.5c3 0 5.9-0.6 8.6-1.6 2.8-1.1 5.3-2.6 7.5-4.6 2.2-1.9 4-4.3 5.3-6.9 1.4-2.6 2.2-5.4 2.6-8.3z"/><path fill-rule="evenodd" class="d" d="m293.5 243.3c-0.4 8.5-4.7 15.2-9.6 14.9-4.8-0.2-8.5-7.3-8-15.8 0.4-8.4 4.6-15.1 9.5-14.9 4.9 0.3 8.5 7.3 8.1 15.8z"/><path fill-rule="evenodd" class="d" d="m288.3 272.4c-0.3 5.1-2.7 9.1-5.5 9-2.8-0.2-4.8-4.4-4.6-9.5 0.3-5 2.7-9 5.5-8.9 2.8 0.1 4.8 4.3 4.6 9.4z"/><path fill-rule="evenodd" class="e" d="m256 218.3c-29 0-52.5-8.9-52.5-19.9 0-11 23.5-19.9 52.5-19.9 29 0 52.5 8.9 52.5 19.9 0 11-23.5 19.9-52.5 19.9z"/><path fill-rule="evenodd" class="f" d="m256 211.1c-25.3 0-45.7-6-45.7-13.4 0-7.5 20.4-13.4 45.7-13.4 25.3 0 45.7 5.9 45.7 13.4 0 7.4-20.4 13.4-45.7 13.4z"/><path class="g" d="m217.3 204.8c8 3.8 22.4 6.3 38.7 6.3 16.3 0 30.7-2.5 38.7-6.3-7.5-4-22-6.7-38.7-6.7-16.7 0-31.2 2.7-38.7 6.7z"/><path class="h" d="m247.4 210.8c-3.5-0.2-6.8-0.5-9.9-0.9 0.3-1.1 1-2.1 2-2.8 1-0.6 2.2-1 3.3-0.9 1.2 0.2 2.3 0.7 3.1 1.5 0.9 0.9 1.4 2 1.5 3.1z"/><path class="h" d="m284.7 206.5q0 0.2 0 0.4 0 0.3-0.1 0.5 0 0.2-0.1 0.4 0 0.2-0.1 0.4-3.9 0.9-8.5 1.5-0.3-0.3-0.5-0.7-0.2-0.3-0.4-0.8-0.1-0.4-0.2-0.8-0.1-0.4-0.1-0.9c0-1.3 0.5-2.6 1.5-3.5 0.9-1 2.2-1.5 3.5-1.5 1.3 0 2.6 0.5 3.6 1.5 0.9 0.9 1.4 2.2 1.4 3.5z"/><path fill-rule="evenodd" class="h" d="m255.4 205.8c-1.8-0.1-3.3-1.5-3.3-3.3 0-1.8 1.5-3.3 3.3-3.3 1.8 0 3.2 1.5 3.2 3.3 0 1.8-1.4 3.2-3.2 3.2z"/><path class="h" d="m271.8 208.3q0 0.2-0.1 0.5 0 0.3-0.1 0.6-0.1 0.2-0.3 0.5-0.1 0.2-0.3 0.4-2.2 0.3-4.6 0.4-0.2-0.2-0.5-0.5-0.2-0.3-0.3-0.6-0.2-0.3-0.2-0.6-0.1-0.4-0.1-0.8c0-0.8 0.4-1.6 1-2.1 0.6-0.6 1.4-0.9 2.2-0.9 0.9 0 1.7 0.3 2.3 0.9 0.6 0.5 0.9 1.3 1 2.1z"/><path fill-rule="evenodd" class="h" d="m233.7 206.9c-1.4 0-2.5-1.1-2.5-2.5 0-1.4 1.1-2.5 2.5-2.5 1.3 0 2.4 1.1 2.4 2.5 0 1.4-1.1 2.5-2.4 2.5z"/><path class="b" d="m433.5 198.8l-2.1 19.1-7 62.4c-0.3 2.9-1.1 5.7-2.5 8.3-1.3 2.6-3.1 5-5.3 6.9-2.2 2-4.7 3.5-7.5 4.6-2.7 1-5.6 1.6-8.6 1.6h-25.4c-2.9 0-5.8-0.6-8.6-1.6-2.7-1.1-5.2-2.6-7.4-4.6-2.2-1.9-4-4.3-5.4-6.9-1.3-2.6-2.2-5.4-2.5-8.3l-6.9-62.4-2.1-19.1z"/><path class="c" d="m431.4 217.9c-9.4 5.3-25.4 8.8-43.6 8.8q-1.9 0-3.9 0-2-0.1-3.9-0.2-2-0.1-3.9-0.3-2-0.1-3.9-0.4c-1.4-0.1-2.8 0-4.1 0.5-1.2 0.4-2.4 1.1-3.4 2.1-0.9 1-1.7 2.1-2.1 3.4-0.5 1.3-0.6 2.7-0.4 4l4.9 44.5c0.3 2.9 1.2 5.7 2.5 8.3 1.4 2.6 3.2 5 5.4 6.9 2.1 2 4.7 3.5 7.4 4.6 2.8 1 5.7 1.6 8.6 1.6h9.6c2.9 0 5.8-0.6 8.5-1.6 2.8-1.1 5.3-2.6 7.5-4.6 2.2-1.9 4-4.3 5.3-6.9 1.4-2.6 2.2-5.4 2.6-8.3z"/><path fill-rule="evenodd" class="d" d="m425.3 243.3c-0.4 8.5-4.7 15.2-9.5 14.9-4.9-0.2-8.5-7.3-8.1-15.8 0.4-8.4 4.7-15.1 9.5-14.9 4.9 0.3 8.5 7.3 8.1 15.8z"/><path fill-rule="evenodd" class="d" d="m420.1 272.4c-0.2 5.1-2.7 9.1-5.5 8.9-2.8-0.1-4.8-4.3-4.6-9.4 0.3-5.1 2.7-9 5.5-8.9 2.8 0.1 4.9 4.3 4.6 9.4z"/><path fill-rule="evenodd" class="e" d="m387.8 218.3c-29 0-52.5-8.9-52.5-19.9 0-11 23.5-19.9 52.5-19.9 29.1 0 52.5 8.9 52.5 19.9 0 11-23.4 19.9-52.5 19.9z"/><path fill-rule="evenodd" class="f" d="m387.8 211.1c-25.2 0-45.6-6-45.6-13.4 0-7.5 20.4-13.4 45.6-13.4 25.3 0 45.7 5.9 45.7 13.4 0 7.4-20.4 13.4-45.7 13.4z"/><path class="g" d="m349.1 204.8c8.1 3.8 22.4 6.3 38.7 6.3 16.4 0 30.7-2.5 38.8-6.3-7.6-4-22.1-6.7-38.8-6.7-16.6 0-31.2 2.7-38.7 6.7z"/><path class="h" d="m379.2 210.8q-5.2-0.3-9.8-0.9c0.3-1.1 1-2.1 1.9-2.8 1-0.7 2.2-1 3.4-0.9 1.2 0.1 2.3 0.7 3.1 1.5 0.8 0.8 1.3 2 1.4 3.1z"/><path class="h" d="m416.5 206.5q0 0.2 0 0.4 0 0.3 0 0.5-0.1 0.2-0.1 0.4-0.1 0.2-0.2 0.4-3.9 0.9-8.4 1.5-0.3-0.3-0.6-0.7-0.2-0.3-0.3-0.8-0.2-0.4-0.3-0.8-0.1-0.4 0-0.9c0-1.3 0.5-2.6 1.4-3.5 1-1 2.2-1.5 3.6-1.5 1.3 0 2.5 0.5 3.5 1.5 0.9 0.9 1.5 2.2 1.5 3.5z"/><path fill-rule="evenodd" class="h" d="m387.2 205.8c-1.8-0.1-3.2-1.5-3.2-3.3 0-1.8 1.4-3.3 3.2-3.3 1.8 0 3.3 1.5 3.3 3.3 0 1.8-1.5 3.2-3.3 3.2z"/><path class="h" d="m403.6 208.3q0 0.2 0 0.5-0.1 0.3-0.2 0.6-0.1 0.2-0.2 0.5-0.2 0.2-0.3 0.4-2.3 0.3-4.6 0.4-0.3-0.2-0.5-0.5-0.2-0.3-0.4-0.6-0.1-0.3-0.2-0.6-0.1-0.4-0.1-0.8c0.1-0.8 0.4-1.6 1-2.1 0.6-0.6 1.4-0.9 2.3-0.9 0.8 0 1.6 0.3 2.2 0.9 0.6 0.5 1 1.3 1 2.1z"/><path fill-rule="evenodd" class="h" d="m365.5 206.9c-1.4 0-2.5-1.1-2.5-2.5 0-1.4 1.1-2.5 2.5-2.5 1.4 0 2.5 1.1 2.5 2.5 0 1.4-1.1 2.5-2.5 2.5z"/><path class="b" d="m169.8 198.8l-2.1 19.1-6.9 62.4c-0.3 2.9-1.2 5.7-2.5 8.3-1.4 2.6-3.2 5-5.4 6.9-2.2 2-4.7 3.5-7.4 4.6-2.8 1-5.7 1.6-8.6 1.6h-25.4c-3 0-5.9-0.6-8.6-1.6-2.8-1.1-5.3-2.6-7.5-4.6-2.2-1.9-4-4.3-5.3-6.9-1.4-2.6-2.2-5.4-2.6-8.3l-6.9-62.4-2.1-19.1z"/><path class="c" d="m167.7 217.9c-9.4 5.3-25.4 8.8-43.5 8.8q-2 0-4 0-1.9-0.1-3.9-0.2-1.9-0.1-3.9-0.3-2-0.1-3.9-0.4c-1.4-0.1-2.7 0-4 0.5-1.3 0.4-2.5 1.1-3.4 2.1-1 1-1.7 2.1-2.2 3.4-0.4 1.3-0.6 2.7-0.4 4l4.9 44.5c0.4 2.9 1.2 5.7 2.6 8.3 1.3 2.6 3.1 5 5.3 6.9 2.2 2 4.7 3.5 7.5 4.6 2.7 1 5.6 1.6 8.5 1.6h9.6c2.9 0 5.8-0.6 8.6-1.6 2.7-1.1 5.3-2.6 7.4-4.6 2.2-1.9 4-4.3 5.4-6.9 1.3-2.6 2.2-5.4 2.5-8.3z"/><path fill-rule="evenodd" class="d" d="m161.7 243.3c-0.4 8.5-4.7 15.2-9.6 14.9-4.9-0.2-8.5-7.3-8.1-15.8 0.4-8.4 4.7-15.1 9.6-14.9 4.9 0.3 8.5 7.3 8.1 15.8z"/><path fill-rule="evenodd" class="d" d="m156.5 272.4c-0.3 5.1-2.7 9.1-5.5 9-2.8-0.2-4.8-4.4-4.6-9.5 0.2-5 2.7-9 5.5-8.9 2.8 0.1 4.8 4.3 4.6 9.4z"/><path fill-rule="evenodd" class="e" d="m124.2 218.3c-29.1 0-52.5-8.9-52.5-19.9 0-11 23.4-19.9 52.5-19.9 29 0 52.4 8.9 52.4 19.9 0 11-23.4 19.9-52.4 19.9z"/><path fill-rule="evenodd" class="f" d="m124.2 211.1c-25.3 0-45.7-6-45.7-13.4 0-7.5 20.4-13.4 45.7-13.4 25.2 0 45.6 5.9 45.6 13.4 0 7.4-20.4 13.4-45.6 13.4z"/><path class="g" d="m85.4 204.8c8.1 3.8 22.4 6.3 38.8 6.3 16.3 0 30.6-2.5 38.7-6.3-7.5-4-22.1-6.7-38.7-6.7-16.7 0-31.2 2.7-38.8 6.7z"/><path class="h" d="m115.5 210.8q-5.1-0.3-9.8-0.9c0.3-1.1 1-2.1 2-2.8 0.9-0.7 2.1-1 3.3-0.9 1.2 0.1 2.3 0.7 3.1 1.5 0.8 0.8 1.3 2 1.4 3.1z"/><path class="h" d="m152.9 206.5q0 0.2-0.1 0.4 0 0.3 0 0.5 0 0.2-0.1 0.4-0.1 0.2-0.1 0.4-4 0.9-8.5 1.5c-1.1-1.2-1.5-2.9-1.1-4.5 0.4-1.6 1.6-2.8 3.1-3.4 1.6-0.6 3.3-0.4 4.6 0.6 1.4 0.9 2.2 2.5 2.2 4.1z"/><path fill-rule="evenodd" class="h" d="m123.5 205.8c-1.7-0.1-3.2-1.5-3.2-3.3 0-1.8 1.5-3.3 3.2-3.3 1.8 0 3.3 1.5 3.3 3.3 0 1.8-1.5 3.2-3.3 3.2z"/><path class="h" d="m140 208.3q0 0.2 0 0.5-0.1 0.3-0.2 0.6-0.1 0.2-0.2 0.5-0.2 0.2-0.4 0.4-2.2 0.3-4.6 0.4c-0.8-0.7-1.2-1.8-1.1-2.9 0.2-1.1 0.9-2 1.9-2.5 1-0.5 2.2-0.4 3.1 0.2 0.9 0.6 1.5 1.6 1.5 2.7z"/><path fill-rule="evenodd" class="h" d="m101.8 206.9c-1.3 0-2.4-1.1-2.4-2.5 0-1.4 1.1-2.5 2.4-2.5 1.4 0 2.5 1.1 2.5 2.5 0 1.4-1.1 2.5-2.5 2.5z"/><path class="b" d="m380.1 263l-2.3 20.5-7.4 66.9c-0.4 3.1-1.3 6.2-2.7 9-1.5 2.8-3.4 5.3-5.8 7.4-2.3 2.1-5 3.8-8 4.9-2.9 1.1-6 1.7-9.2 1.7h-27.2c-3.2 0-6.3-0.6-9.3-1.7-2.9-1.1-5.6-2.8-8-4.9-2.3-2.1-4.3-4.6-5.7-7.4-1.4-2.8-2.4-5.9-2.7-9l-7.4-66.9-2.3-20.5z"/><path class="c" d="m377.8 283.6c-10.1 5.6-27.3 9.4-46.7 9.4q-2.1 0-4.2-0.1-2.1 0-4.2-0.2-2.1-0.1-4.2-0.3-2.1-0.2-4.2-0.4c-1.5-0.2-3 0-4.3 0.5-1.4 0.4-2.7 1.2-3.7 2.3-1 1-1.8 2.2-2.3 3.6-0.5 1.4-0.7 2.9-0.5 4.3l5.3 47.7c0.3 3.1 1.3 6.2 2.7 9 1.4 2.8 3.4 5.3 5.7 7.4 2.4 2.1 5.1 3.8 8 4.9 3 1.1 6.1 1.7 9.3 1.7h10.2c3.2 0 6.3-0.6 9.2-1.7 3-1.1 5.7-2.8 8-4.9 2.4-2.1 4.3-4.6 5.8-7.4 1.4-2.8 2.3-5.9 2.7-9z"/><path fill-rule="evenodd" class="d" d="m371.3 310.8c-0.4 9.1-5 16.2-10.3 16-5.2-0.3-9.1-7.8-8.6-17 0.4-9.1 5-16.2 10.2-16 5.3 0.3 9.1 7.8 8.7 17z"/><path fill-rule="evenodd" class="d" d="m366.7 342.2c-0.2 5.4-2.9 9.7-5.9 9.5-3-0.1-5.2-4.6-4.9-10.1 0.3-5.4 2.9-9.7 5.9-9.6 3 0.2 5.2 4.7 4.9 10.2z"/><path fill-rule="evenodd" class="e" d="m331.1 283.9c-31.1 0-56.3-9.5-56.3-21.3 0-11.8 25.2-21.4 56.3-21.4 31.1 0 56.3 9.6 56.3 21.4 0 11.8-25.2 21.3-56.3 21.3z"/><path fill-rule="evenodd" class="f" d="m331.1 276.2c-27.1 0-49-6.4-49-14.4 0-7.9 21.9-14.4 49-14.4 27.1 0 49 6.5 49 14.4 0 8-21.9 14.4-49 14.4z"/><path class="g" d="m289.5 269.4c8.7 4.1 24 6.8 41.6 6.8 17.5 0 32.9-2.7 41.5-6.8-8.1-4.3-23.6-7.2-41.5-7.2-17.9 0-33.5 2.9-41.6 7.2z"/><path class="h" d="m321.8 276q-5.5-0.3-10.5-1c0.3-1.3 1-2.4 2.1-3.1 1-0.8 2.3-1.1 3.6-1 1.3 0.1 2.5 0.7 3.4 1.6 0.9 1 1.4 2.2 1.4 3.5z"/><path class="h" d="m361.9 271.3q0 0.2 0 0.5-0.1 0.2-0.1 0.4 0 0.2-0.1 0.4-0.1 0.3-0.1 0.5-4.3 1-9.1 1.7c-1.2-1.4-1.6-3.2-1.2-4.9 0.5-1.7 1.7-3 3.4-3.6 1.6-0.6 3.5-0.4 4.9 0.6 1.4 1 2.3 2.7 2.3 4.4z"/><path fill-rule="evenodd" class="h" d="m330.4 270.5c-1.9 0-3.5-1.6-3.5-3.5 0-1.9 1.6-3.5 3.5-3.5 1.9 0 3.5 1.6 3.5 3.5 0 1.9-1.6 3.5-3.5 3.5z"/><path class="h" d="m348 273.2q0 0.3-0.1 0.6 0 0.3-0.1 0.6-0.1 0.2-0.3 0.5-0.1 0.3-0.3 0.5-2.4 0.3-5 0.4-0.2-0.2-0.5-0.5-0.2-0.3-0.4-0.7-0.1-0.3-0.2-0.7-0.1-0.4-0.1-0.7c0-1 0.4-1.9 1.1-2.5 0.6-0.7 1.5-1 2.4-1 0.9 0 1.8 0.3 2.5 1 0.6 0.6 1 1.5 1 2.5z"/><path fill-rule="evenodd" class="h" d="m307.1 271.7c-1.4 0-2.6-1.2-2.6-2.7 0-1.4 1.2-2.6 2.6-2.6 1.5 0 2.7 1.2 2.7 2.6 0 1.5-1.2 2.7-2.7 2.7z"/><path class="b" d="m240.1 263l-2.3 20.5-7.4 66.9c-0.4 3.1-1.3 6.2-2.7 9-1.4 2.8-3.4 5.3-5.7 7.4-2.4 2.1-5.1 3.8-8 4.9-3 1.1-6.1 1.7-9.3 1.7h-27.2c-3.2 0-6.3-0.6-9.2-1.7-3-1.1-5.7-2.8-8-4.9-2.4-2.1-4.3-4.6-5.8-7.4-1.4-2.8-2.3-5.9-2.7-9l-7.4-66.9-2.3-20.5z"/><path class="c" d="m237.8 283.6c-10.1 5.6-27.2 9.4-46.7 9.4q-2.1 0-4.2-0.1-2.1 0-4.2-0.2-2.1-0.1-4.2-0.3-2.1-0.2-4.2-0.4c-1.5-0.2-2.9 0-4.3 0.5-1.4 0.4-2.6 1.2-3.7 2.3-1 1-1.8 2.2-2.3 3.6-0.5 1.4-0.6 2.9-0.5 4.3l5.3 47.7c0.4 3.1 1.3 6.2 2.7 9 1.5 2.8 3.4 5.3 5.8 7.4 2.3 2.1 5 3.8 8 4.9 2.9 1.1 6 1.7 9.2 1.7h10.2c3.2 0 6.3-0.6 9.3-1.7 2.9-1.1 5.6-2.8 8-4.9 2.3-2.1 4.3-4.6 5.7-7.4 1.4-2.8 2.3-5.9 2.7-9z"/><path fill-rule="evenodd" class="d" d="m231.3 310.8c-0.4 9.1-5 16.2-10.2 16-5.2-0.3-9.1-7.9-8.7-17 0.5-9.1 5-16.2 10.3-16 5.2 0.3 9.1 7.8 8.6 17z"/><path fill-rule="evenodd" class="d" d="m225.8 342c-0.3 5.4-2.9 9.7-5.9 9.6-3-0.2-5.2-4.7-5-10.1 0.3-5.5 2.9-9.8 5.9-9.6 3 0.1 5.2 4.6 5 10.1z"/><path fill-rule="evenodd" class="e" d="m191.1 283.9c-31.1 0-56.3-9.5-56.3-21.3 0-11.8 25.2-21.4 56.3-21.4 31.1 0 56.3 9.6 56.3 21.4 0 11.8-25.2 21.3-56.3 21.3z"/><path fill-rule="evenodd" class="f" d="m191.1 276.2c-27.1 0-49-6.4-49-14.4 0-7.9 21.9-14.4 49-14.4 27.1 0 49 6.5 49 14.4 0 8-21.9 14.4-49 14.4z"/><path class="g" d="m149.5 269.4c8.7 4.1 24 6.8 41.6 6.8 17.6 0 32.9-2.7 41.6-6.8-8.1-4.3-23.7-7.2-41.6-7.2-17.9 0-33.4 2.9-41.6 7.2z"/><path class="h" d="m181.8 276q-5.5-0.3-10.5-1c0.3-1.3 1-2.4 2.1-3.1 1-0.8 2.3-1.1 3.6-1 1.3 0.1 2.5 0.7 3.4 1.6 0.9 1 1.4 2.2 1.4 3.5z"/><path class="h" d="m221.9 271.3q0 0.2 0 0.5 0 0.2-0.1 0.4 0 0.2-0.1 0.4 0 0.3-0.1 0.5-4.2 1-9.1 1.7c-1.2-1.4-1.6-3.2-1.1-4.9 0.4-1.7 1.7-3 3.3-3.6 1.6-0.6 3.5-0.4 4.9 0.6 1.4 1 2.3 2.7 2.3 4.4z"/><path fill-rule="evenodd" class="h" d="m190.4 270.5c-1.9 0-3.5-1.6-3.5-3.5 0-1.9 1.6-3.5 3.5-3.5 2 0 3.5 1.6 3.5 3.5 0 1.9-1.5 3.5-3.5 3.5z"/><path class="h" d="m208.1 273.2q0 0.3-0.1 0.6-0.1 0.3-0.2 0.6-0.1 0.2-0.2 0.5-0.2 0.3-0.4 0.5-2.4 0.3-4.9 0.4-0.3-0.2-0.5-0.5-0.3-0.3-0.4-0.7-0.2-0.3-0.3-0.7 0-0.4 0-0.7c0-1 0.3-1.9 1-2.5 0.7-0.7 1.5-1 2.5-1 0.9 0 1.8 0.3 2.4 1 0.7 0.6 1.1 1.5 1.1 2.5z"/><path fill-rule="evenodd" class="h" d="m167.2 271.7c-1.5 0-2.7-1.2-2.7-2.7 0-1.4 1.2-2.6 2.7-2.6 1.4 0 2.6 1.2 2.6 2.6 0 1.5-1.2 2.7-2.6 2.7z"/><path class="h" d="m245.9 364.8c-4-0.2-7.9-0.6-11.5-1 0.3-1.4 1.1-2.6 2.3-3.4 1.1-0.8 2.5-1.2 3.9-1.1 1.4 0.2 2.7 0.8 3.7 1.8 0.9 1 1.5 2.3 1.6 3.7z"/><path class="h" d="m289.6 359.8q0 0.2-0.1 0.5 0 0.2 0 0.5-0.1 0.2-0.1 0.4-0.1 0.3-0.2 0.5-4.6 1.1-9.9 1.8c-1.3-1.4-1.7-3.4-1.2-5.2 0.5-1.9 1.8-3.4 3.6-4 1.8-0.7 3.8-0.4 5.4 0.7 1.5 1.1 2.5 2.9 2.4 4.8z"/><path fill-rule="evenodd" class="h" d="m255.3 358.9c-2.1 0-3.8-1.7-3.8-3.8 0-2.1 1.7-3.8 3.8-3.8 2.1 0 3.8 1.7 3.8 3.8 0 2.1-1.7 3.8-3.8 3.8z"/><path class="h" d="m274.5 361.8q0 0.3-0.1 0.7-0.1 0.3-0.2 0.6-0.1 0.3-0.2 0.6-0.2 0.3-0.4 0.5-2.7 0.3-5.4 0.5c-1-0.8-1.5-2.1-1.3-3.4 0.2-1.3 1-2.4 2.2-2.9 1.1-0.6 2.5-0.5 3.6 0.2 1.1 0.7 1.8 1.9 1.8 3.2z"/><path fill-rule="evenodd" class="h" d="m229.9 360.2c-1.6 0-2.9-1.3-2.9-2.9 0-1.6 1.3-2.9 2.9-2.9 1.6 0 2.9 1.3 2.9 2.9 0 1.6-1.3 2.9-2.9 2.9z"/><path  d="m152.4 125v-45.5h48.1v10.3h-36.9v22.2q2.7-0.9 5.3-1.3 2.7-0.5 5.4-0.5 15.1 0 24 8.3 8.8 8.3 8.8 22.5 0 14.6-9.1 22.7-9.1 8.1-25.6 8.1-5.7 0-11.6-1-5.9-1-12.2-2.9v-12.3q5.4 2.9 11.2 4.4 5.9 1.5 12.3 1.5 10.5 0 16.7-5.6 6.1-5.5 6.1-14.9 0-9.5-6.1-15-6.2-5.5-16.7-5.5-4.9 0-9.8 1.1-4.8 1.1-9.9 3.4zm105.1-37.4q-9.5 0-14.3 9.3-4.7 9.3-4.7 28 0 18.6 4.7 27.9 4.8 9.3 14.3 9.3 9.5 0 14.2-9.3 4.8-9.3 4.8-27.9 0-18.7-4.8-28-4.7-9.3-14.2-9.3zm0-9.7q15.2 0 23.2 12 8 12 8 35 0 22.8-8 34.9-8 12-23.2 12-15.3 0-23.3-12-8-12.1-8-34.9 0-23 8-35 8-12 23.3-12zm54.9 92.1v-10.3h20v-69l-21.8 4.3v-11.1l21.7-4.4h12.2v80.2h20v10.3z"/></svg>